<mxfile host="app.diagrams.net" modified="2021-08-24T08:14:37.707Z" agent="5.0 (Macintosh; Intel Mac OS X 10_15_7) AppleWebKit/537.36 (KHTML, like Gecko) Chrome/86.0.4240.193 Safari/537.36" etag="BRzlLDy8_wClwVqaHuVi" version="14.9.8" type="github">
  <diagram id="4Rfr09RnKC8wixCCpDA2" name="Page-1">
    <mxGraphModel dx="946" dy="536" grid="1" gridSize="10" guides="1" tooltips="1" connect="1" arrows="1" fold="1" page="1" pageScale="1" pageWidth="827" pageHeight="1169" math="0" shadow="0">
      <root>
        <mxCell id="0" />
        <mxCell id="1" parent="0" />
        <mxCell id="YB_Zp1bMTWXzboNs1k8h-1" value="（100+200）*300 的计算过程" style="text;html=1;align=center;verticalAlign=middle;resizable=0;points=[];autosize=1;strokeColor=none;" vertex="1" parent="1">
          <mxGeometry x="329" y="130" width="170" height="20" as="geometry" />
        </mxCell>
        <mxCell id="YB_Zp1bMTWXzboNs1k8h-2" value="100" style="rounded=0;whiteSpace=wrap;html=1;fillColor=#dae8fc;strokeColor=#6c8ebf;" vertex="1" parent="1">
          <mxGeometry x="110" y="230" width="70" height="40" as="geometry" />
        </mxCell>
        <mxCell id="YB_Zp1bMTWXzboNs1k8h-3" value="" style="rounded=0;whiteSpace=wrap;html=1;fillColor=#dae8fc;strokeColor=#6c8ebf;" vertex="1" parent="1">
          <mxGeometry x="110" y="190" width="70" height="40" as="geometry" />
        </mxCell>
        <mxCell id="YB_Zp1bMTWXzboNs1k8h-4" value="100" style="rounded=0;whiteSpace=wrap;html=1;fillColor=#dae8fc;strokeColor=#6c8ebf;" vertex="1" parent="1">
          <mxGeometry x="245" y="230" width="70" height="40" as="geometry" />
        </mxCell>
        <mxCell id="YB_Zp1bMTWXzboNs1k8h-5" value="200" style="rounded=0;whiteSpace=wrap;html=1;fillColor=#dae8fc;strokeColor=#6c8ebf;" vertex="1" parent="1">
          <mxGeometry x="245" y="190" width="70" height="40" as="geometry" />
        </mxCell>
        <mxCell id="YB_Zp1bMTWXzboNs1k8h-7" value="300" style="rounded=0;whiteSpace=wrap;html=1;fillColor=#dae8fc;strokeColor=#6c8ebf;" vertex="1" parent="1">
          <mxGeometry x="379" y="230" width="70" height="40" as="geometry" />
        </mxCell>
        <mxCell id="YB_Zp1bMTWXzboNs1k8h-8" value="" style="rounded=0;whiteSpace=wrap;html=1;fillColor=#dae8fc;strokeColor=#6c8ebf;" vertex="1" parent="1">
          <mxGeometry x="379" y="190" width="70" height="40" as="geometry" />
        </mxCell>
        <mxCell id="YB_Zp1bMTWXzboNs1k8h-9" value="300" style="rounded=0;whiteSpace=wrap;html=1;fillColor=#dae8fc;strokeColor=#6c8ebf;" vertex="1" parent="1">
          <mxGeometry x="520" y="230" width="70" height="40" as="geometry" />
        </mxCell>
        <mxCell id="YB_Zp1bMTWXzboNs1k8h-10" value="300" style="rounded=0;whiteSpace=wrap;html=1;fillColor=#dae8fc;strokeColor=#6c8ebf;" vertex="1" parent="1">
          <mxGeometry x="520" y="190" width="70" height="40" as="geometry" />
        </mxCell>
        <mxCell id="YB_Zp1bMTWXzboNs1k8h-11" value="90000" style="rounded=0;whiteSpace=wrap;html=1;fillColor=#dae8fc;strokeColor=#6c8ebf;" vertex="1" parent="1">
          <mxGeometry x="650" y="230" width="70" height="40" as="geometry" />
        </mxCell>
        <mxCell id="YB_Zp1bMTWXzboNs1k8h-12" value="" style="rounded=0;whiteSpace=wrap;html=1;fillColor=#dae8fc;strokeColor=#6c8ebf;" vertex="1" parent="1">
          <mxGeometry x="650" y="190" width="70" height="40" as="geometry" />
        </mxCell>
      </root>
    </mxGraphModel>
  </diagram>
</mxfile>
